<svg width="18" height="18" viewBox="0 0 18 18" fill="none" xmlns="http://www.w3.org/2000/svg">
<g clip-path="url(#clip0_104_102)">
<path d="M8.625 18H9.375C13.455 18 15.4875 18 16.7475 16.74C18 15.48 18 13.44 18 9.375V8.61C18 4.56 18 2.52 16.7475 1.26C15.4875 0 13.4475 0 9.375 0H8.625C4.545 0 2.5125 0 1.2525 1.26C0 2.52 0 4.56 0 8.625V9.39C0 13.44 0 15.48 1.26 16.74C2.52 18 4.56 18 8.625 18ZM9.5775 12.9675C5.475 12.9675 3.135 10.155 3.0375 5.475H5.0925C5.16 8.91 6.675 10.365 7.875 10.665V5.475H9.81V8.4375C10.995 8.31 12.24 6.96 12.66 5.475H14.595C14.4367 6.24516 14.1213 6.97438 13.6683 7.61705C13.2153 8.25972 12.6346 8.80201 11.9625 9.21C12.7127 9.58279 13.3754 10.1104 13.9067 10.7581C14.4381 11.4058 14.826 12.1589 15.045 12.9675H12.915C12.7184 12.2651 12.319 11.6364 11.7666 11.1601C11.2143 10.6838 10.5336 10.3811 9.81 10.29V12.9675H9.5775Z" fill="white"/>
</g>
<defs>
<clipPath id="clip0_104_102">
<rect width="18" height="18" fill="white"/>
</clipPath>
</defs>
</svg>
