<?xml version="1.0" standalone="no"?>
<!DOCTYPE svg PUBLIC "-//W3C//DTD SVG 20010904//EN"
 "http://www.w3.org/TR/2001/REC-SVG-20010904/DTD/svg10.dtd">
<svg version="1.0" xmlns="http://www.w3.org/2000/svg"
 width="512.000000pt" height="512.000000pt" viewBox="0 0 512.000000 512.000000"
 preserveAspectRatio="xMidYMid meet">

<g transform="translate(0.000000,512.000000) scale(0.100000,-0.100000)"
fill="#ffffff" stroke="none">
<path d="M1312 3877 c-683 -683 -1242 -1246 -1242 -1252 0 -5 120 -130 267
-277 l268 -268 977 977 978 978 978 -978 977 -977 268 268 c147 147 267 272
267 277 0 10 -2480 2495 -2490 2495 -3 0 -564 -559 -1248 -1243z"/>
<path d="M1310 1785 l-1245 -1245 270 -270 270 -270 977 977 978 978 978 -978
977 -977 270 270 270 270 -1245 1245 c-685 685 -1247 1245 -1250 1245 -3 0
-565 -560 -1250 -1245z"/>
</g>
</svg>
